<svg width="20" height="28" viewBox="0 0 20 28" fill="none" xmlns="http://www.w3.org/2000/svg">
<path fill-rule="evenodd" clip-rule="evenodd" d="M2.5 2.33333C2.03977 2.33333 1.66667 2.85567 1.66667 3.5V7C1.66667 7.64433 2.03977 8.16667 2.5 8.16667H5C5.46023 8.16667 5.83333 7.64433 5.83333 7V3.5C5.83333 2.85567 5.46023 2.33333 5 2.33333H2.5ZM2.5 0H5C6.38071 0 7.5 1.56701 7.5 3.5V7C7.5 8.93299 6.38071 10.5 5 10.5H2.5C1.11929 10.5 0 8.93299 0 7V3.5C0 1.56701 1.11929 0 2.5 0ZM11.6667 18.6667H17.5C18.8807 18.6667 20 20.2336 20 22.1667V24.5C20 26.433 18.8807 28 17.5 28H11.6667C10.2859 28 9.16667 26.433 9.16667 24.5V22.1667C9.16667 20.2336 10.2859 18.6667 11.6667 18.6667ZM11.6667 21C11.2064 21 10.8333 21.5223 10.8333 22.1667V24.5C10.8333 25.1444 11.2064 25.6667 11.6667 25.6667H17.5C17.9602 25.6667 18.3333 25.1444 18.3333 24.5V22.1667C18.3333 21.5223 17.9602 21 17.5 21H11.6667ZM2.5 12.8333H5C6.38071 12.8333 7.5 14.4003 7.5 16.3333V24.5C7.5 26.433 6.38071 28 5 28H2.5C1.11929 28 0 26.433 0 24.5V16.3333C0 14.4003 1.11929 12.8333 2.5 12.8333ZM2.5 15.1667C2.03977 15.1667 1.66667 15.689 1.66667 16.3333V24.5C1.66667 25.1444 2.03977 25.6667 2.5 25.6667H5C5.46023 25.6667 5.83333 25.1444 5.83333 24.5V16.3333C5.83333 15.689 5.46023 15.1667 5 15.1667H2.5ZM17.5 0C18.8807 0 20 1.56701 20 3.5V12.8333C20 14.7664 18.8807 16.3333 17.5 16.3333H11.6667C10.2859 16.3333 9.16667 14.7664 9.16667 12.8333V3.5C9.16667 1.56701 10.2859 0 11.6667 0H17.5ZM10.8333 3.5V12.8333C10.8333 13.4777 11.2064 14 11.6667 14H17.5C17.9602 14 18.3333 13.4777 18.3333 12.8333V3.5C18.3333 2.85567 17.9602 2.33333 17.5 2.33333H11.6667C11.2064 2.33333 10.8333 2.85567 10.8333 3.5Z" fill="#828487"/>
</svg>
