<svg width="21" height="28" viewBox="0 0 21 28" fill="none" xmlns="http://www.w3.org/2000/svg">
<path fill-rule="evenodd" clip-rule="evenodd" d="M1.21429 20C1.21429 18.8954 1.85389 18 2.64287 18H4.78572C5.5747 18 6.21429 18.8954 6.21429 20V25C6.21429 26.1046 5.5747 27 4.78572 27H2.64287C1.85389 27 1.21429 26.1046 1.21429 25V20ZM4.78572 20.4C4.78572 20.1791 4.6578 20 4.50001 20H2.92858C2.77079 20 2.64287 20.1791 2.64287 20.4V24.6C2.64287 24.8209 2.77079 25 2.92858 25H4.50001C4.6578 25 4.78572 24.8209 4.78572 24.6V20.4Z" fill="#828487"/>
<path fill-rule="evenodd" clip-rule="evenodd" d="M7.64288 3C7.64288 1.89543 8.28245 1 9.07145 1H11.2143C12.0033 1 12.6429 1.89543 12.6429 3V25C12.6429 26.1046 12.0033 27 11.2143 27H9.07145C8.28245 27 7.64288 26.1046 7.64288 25V3ZM11.2143 3.4C11.2143 3.17909 11.0864 3 10.9286 3H9.35717C9.19938 3 9.07145 3.17909 9.07145 3.4V24.6C9.07145 24.8209 9.19938 25 9.35717 25H10.9286C11.0864 25 11.2143 24.8209 11.2143 24.6V3.4Z" fill="#828487"/>
<path fill-rule="evenodd" clip-rule="evenodd" d="M14.0714 11C14.0714 9.89543 14.711 9 15.5 9H17.6428C18.4318 9 19.0714 9.89543 19.0714 11V25C19.0714 26.1046 18.4318 27 17.6428 27H15.5C14.711 27 14.0714 26.1046 14.0714 25V11ZM17.6428 11.4C17.6428 11.1791 17.5149 11 17.3571 11H15.7857C15.6279 11 15.5 11.1791 15.5 11.4V24.6C15.5 24.8209 15.6279 25 15.7857 25H17.3571C17.5149 25 17.6428 24.8209 17.6428 24.6V11.4Z" fill="#828487"/>
</svg>
