<svg width="21" height="28" viewBox="0 0 21 28" fill="none" xmlns="http://www.w3.org/2000/svg">
<g clip-path="url(#clip0_142_2918)">
<path d="M20.338 7.63697C20.2327 7.40992 20.0826 7.23047 19.906 7.12037L10.906 1.52037C10.7782 1.44078 10.6399 1.39966 10.5 1.39966C10.3601 1.39966 10.2218 1.44078 10.094 1.52037L1.094 7.12037C0.917181 7.23034 0.766948 7.40977 0.661514 7.6369C0.556081 7.86402 0.499975 8.12909 0.5 8.39997V28H2.5V9.30997L10.5 4.33157L18.5 9.30997V28H20.5V8.39997C20.4999 8.12905 20.4436 7.864 20.338 7.63697ZM12.5 11.2H16.5V16.8H12.5V11.2ZM10.5 14H4.5V28H10.5V14ZM16.5 19.6H12.5V28H16.5V19.6Z" fill="#828487"/>
</g>
<defs>
<clipPath id="clip0_142_2918">
<rect width="20" height="28" fill="white" transform="translate(0.5)"/>
</clipPath>
</defs>
</svg>
