<svg width="20" height="28" viewBox="0 0 20 28" fill="none" xmlns="http://www.w3.org/2000/svg">
<path d="M2.67634 26.6215C2.7869 26.6215 2.87646 26.4695 2.87646 26.282V16.7397C2.87646 16.5521 2.7869 16.4002 2.67634 16.4002H1.07539C1.04911 16.4002 1.02308 16.409 0.9988 16.426C0.974518 16.4431 0.952455 16.4681 0.933871 16.4996C0.915287 16.5311 0.900547 16.5686 0.890492 16.6098C0.880436 16.651 0.875264 16.6951 0.875269 16.7397V26.282C0.875269 26.4695 0.964834 26.6215 1.07539 26.6215H2.67634ZM2.67634 27.9794H1.07539C0.522754 27.9794 0.0747913 27.2195 0.0747913 26.282V16.7397C0.0747913 15.8022 0.522754 15.0422 1.07539 15.0422H2.67634C3.22898 15.0422 3.67694 15.8022 3.67694 16.7397V26.282C3.67694 27.2195 3.22898 27.9794 2.67634 27.9794ZM8.11736 26.6215C8.22792 26.6215 8.31748 26.4695 8.31748 26.282V14.7693C8.31748 14.5817 8.22792 14.4298 8.11736 14.4298H6.51641C6.49013 14.4297 6.4641 14.4385 6.43982 14.4556C6.41554 14.4726 6.39347 14.4976 6.37489 14.5292C6.35631 14.5607 6.34157 14.5981 6.33151 14.6393C6.32146 14.6805 6.31628 14.7247 6.31629 14.7693V26.282C6.31629 26.4695 6.40585 26.6215 6.51641 26.6215H8.11736ZM8.11736 27.9794H6.51641C5.96377 27.9794 5.51581 27.2195 5.51581 26.282V14.7693C5.51581 13.8317 5.96377 13.0718 6.51641 13.0718H8.11736C8.67 13.0718 9.11796 13.8317 9.11796 14.7693V26.282C9.11796 27.2195 8.67 27.9794 8.11736 27.9794ZM13.5584 26.6419C13.6689 26.6419 13.7585 26.49 13.7585 26.3024V12.819C13.7585 12.6316 13.6688 12.4795 13.5584 12.4795H11.9574C11.847 12.4795 11.7573 12.6316 11.7573 12.819V26.3024C11.7573 26.49 11.8469 26.6419 11.9574 26.6419H13.5584ZM13.5584 27.9999H11.9574C11.4048 27.9999 10.9568 27.24 10.9568 26.3024V12.819C10.9568 11.8817 11.4048 11.1215 11.9574 11.1215H13.5584C14.111 11.1215 14.559 11.8817 14.559 12.819V26.3024C14.559 27.24 14.111 27.9999 13.5584 27.9999ZM18.9994 26.642C19.11 26.642 19.1995 26.4901 19.1995 26.3025V11.1215C19.1995 10.934 19.11 10.782 18.9994 10.782H17.3984C17.3722 10.782 17.3461 10.7908 17.3219 10.8079C17.2976 10.8249 17.2755 10.8499 17.2569 10.8815C17.2383 10.913 17.2236 10.9504 17.2136 10.9916C17.2035 11.0328 17.1983 11.077 17.1983 11.1215V26.3025C17.1983 26.4901 17.2879 26.642 17.3984 26.642H18.9994ZM18.9994 28H17.3984C16.8458 28 16.3979 27.24 16.3979 26.3025V11.1215C16.3979 10.184 16.8458 9.42406 17.3984 9.42406H18.9994C19.552 9.42406 20 10.184 20 11.1215V26.3025C20 27.24 19.552 28 18.9994 28ZM18.8781 0.0875536C13.2379 5.47837 6.94295 8.6586 0.376084 9.33246C0.155445 9.3551 -0.0126046 9.67689 0.000743176 10.0512C0.014091 10.4255 0.203774 10.7106 0.424414 10.688C7.11309 10.0016 13.5258 6.76189 19.2711 1.27069C19.4636 1.08662 19.5318 0.672557 19.4233 0.345824C19.3148 0.0190906 19.0707 -0.0965176 18.8781 0.0875536Z" fill="#828487"/>
</svg>
