<svg width="21" height="26" viewBox="0 0 21 26" fill="none" xmlns="http://www.w3.org/2000/svg">
<path fill-rule="evenodd" clip-rule="evenodd" d="M10.5 8.625C8.42894 8.625 6.75 10.5838 6.75 13C6.75 15.4163 8.42894 17.375 10.5 17.375C12.5711 17.375 14.25 15.4163 14.25 13C14.25 10.5838 12.5711 8.625 10.5 8.625ZM8.25 13C8.25 11.5503 9.2574 10.375 10.5 10.375C11.7426 10.375 12.75 11.5503 12.75 13C12.75 14.4497 11.7426 15.625 10.5 15.625C9.2574 15.625 8.25 14.4497 8.25 13Z" fill="#828487"/>
<path fill-rule="evenodd" clip-rule="evenodd" d="M10.4747 0.458375C10.0303 0.458363 9.6592 0.458363 9.3546 0.482606C9.0375 0.507853 8.738 0.562266 8.44761 0.702593C7.77379 1.02822 7.23843 1.6528 6.95932 2.43893C6.81402 2.8482 6.77467 3.27951 6.75964 3.74833C6.74756 4.1252 6.58454 4.43964 6.34395 4.60169C6.10337 4.76374 5.78845 4.77123 5.50266 4.595C5.14714 4.37577 4.80729 4.19986 4.43083 4.14204C3.70773 4.03098 2.97642 4.2596 2.39779 4.7776C2.14843 5.00083 1.95827 5.27624 1.78099 5.58401C1.61068 5.87965 1.42517 6.25455 1.20294 6.70362L1.17769 6.75465C0.955451 7.20372 0.769932 7.57859 0.635621 7.89848C0.495811 8.23149 0.386441 8.56133 0.345411 8.92489C0.250211 9.76852 0.446171 10.6217 0.890162 11.2968C1.12128 11.6481 1.42173 11.9036 1.76217 12.1532C2.03595 12.3538 2.18788 12.6758 2.18786 13C2.18785 13.3241 2.03592 13.6461 1.76217 13.8468C1.42169 14.0964 1.12121 14.3519 0.890071 14.7033C0.446071 15.3783 0.250121 16.2315 0.345311 17.0751C0.386341 17.4386 0.495711 17.7686 0.635521 18.1015C0.769831 18.4214 0.955352 18.7963 1.17758 19.2453L1.20284 19.2964C1.42507 19.7455 1.61058 20.1203 1.78089 20.416C1.95817 20.7237 2.14833 20.9992 2.39769 21.2224C2.97632 21.7404 3.70763 21.969 4.43073 21.858C4.80717 21.8001 5.147 21.6243 5.5025 21.4051C5.78833 21.2288 6.10329 21.2362 6.3439 21.3984C6.58452 21.5605 6.74756 21.8749 6.75964 22.2518C6.77467 22.7206 6.81403 23.1519 6.95932 23.5612C7.23843 24.3473 7.77379 24.9719 8.44761 25.2975C8.738 25.4379 9.0375 25.4922 9.3546 25.5174C9.6592 25.5417 10.0303 25.5417 10.4747 25.5417H10.5252C10.9697 25.5417 11.3407 25.5417 11.6454 25.5174C11.9625 25.4922 12.262 25.4379 12.5524 25.2975C13.2262 24.9719 13.7616 24.3473 14.0407 23.5612C14.186 23.1519 14.2253 22.7206 14.2403 22.2517C14.2524 21.8749 14.4154 21.5605 14.656 21.3983C14.8966 21.2362 15.2116 21.2288 15.4974 21.4049C15.8529 21.6242 16.1927 21.8001 16.5692 21.8578C17.2923 21.9689 18.0236 21.7404 18.6022 21.2224C18.8516 20.9991 19.0417 20.7237 19.219 20.416C19.3893 20.1203 19.5748 19.7455 19.797 19.2964L19.8223 19.2453C20.0445 18.7963 20.2301 18.4213 20.3644 18.1014C20.5042 17.7684 20.6135 17.4386 20.6546 17.0751C20.7498 16.2314 20.5538 15.3782 20.1098 14.7031C19.8787 14.3517 19.5782 14.0964 19.2378 13.8468C18.964 13.6461 18.8121 13.3241 18.8121 12.9999C18.8121 12.6758 18.964 12.3539 19.2377 12.1533C19.5783 11.9037 19.8788 11.6483 20.1099 11.2968C20.5539 10.6218 20.7499 9.7686 20.6547 8.92497C20.6136 8.56141 20.5043 8.23157 20.3645 7.89856C20.2302 7.57869 20.0447 7.20384 19.8224 6.75482L19.7972 6.70375C19.5749 6.25467 19.3894 5.87973 19.2191 5.58409C19.0418 5.27632 18.8517 5.00091 18.6023 4.77767C18.0237 4.25968 17.2924 4.03106 16.5692 4.14212C16.1928 4.19994 15.853 4.37583 15.4975 4.59505C15.2117 4.7713 14.8967 4.76379 14.6561 4.60172C14.4155 4.43966 14.2524 4.12517 14.2403 3.74827C14.2253 3.27947 14.186 2.84817 14.0407 2.43893C13.7616 1.6528 13.2262 1.02822 12.5524 0.702593C12.262 0.562266 11.9625 0.507853 11.6454 0.482606C11.3407 0.458363 10.9697 0.458363 10.5252 0.458375H10.4747ZM9.0216 2.31938C9.0988 2.2821 9.216 2.24771 9.4567 2.22855C9.7042 2.20885 10.0238 2.20837 10.5 2.20837C10.9762 2.20837 11.2958 2.20885 11.5432 2.22855C11.784 2.24771 11.9012 2.2821 11.9783 2.31938C12.2846 2.4674 12.528 2.75129 12.6548 3.10863C12.6949 3.22134 12.728 3.39706 12.7414 3.81367C12.771 4.73812 13.18 5.62821 13.9061 6.11727C14.6321 6.60634 15.4974 6.57451 16.1984 6.14223C16.5143 5.94742 16.6614 5.89308 16.765 5.87716C17.0937 5.82667 17.4261 5.93059 17.6891 6.16604C17.7554 6.22535 17.8395 6.32658 17.9741 6.56023C18.1125 6.80041 18.2726 7.12308 18.5107 7.60421C18.7488 8.08535 18.9083 8.40849 19.0174 8.66836C19.1235 8.92117 19.1566 9.05679 19.1675 9.15339C19.2108 9.53685 19.1217 9.92467 18.9199 10.2315C18.8562 10.3283 18.7424 10.4497 18.4397 10.6715C17.7684 11.1637 17.3122 12.0219 17.3121 12.9999C17.3121 13.9781 17.7683 14.8364 18.4397 15.3286C18.7423 15.5504 18.8561 15.6717 18.9198 15.7685C19.1216 16.0754 19.2107 16.4632 19.1674 16.8467C19.1565 16.9433 19.1234 17.0788 19.0173 17.3316C18.9082 17.5915 18.7487 17.9146 18.5106 18.3958C18.2725 18.8769 18.1124 19.1996 17.974 19.4398C17.8394 19.6734 17.7553 19.7746 17.689 19.8339C17.426 20.0695 17.0936 20.1733 16.7649 20.1229C16.6613 20.1069 16.5142 20.0525 16.1983 19.8578C15.4973 19.4255 14.632 19.3937 13.9059 19.8828C13.18 20.3719 12.771 21.2619 12.7414 22.1864C12.728 22.603 12.6949 22.7787 12.6548 22.8915C12.528 23.2487 12.2846 23.5327 11.9783 23.6808C11.9012 23.718 11.784 23.7524 11.5432 23.7715C11.2958 23.7912 10.9762 23.7917 10.5 23.7917C10.0238 23.7917 9.7042 23.7912 9.4567 23.7715C9.216 23.7524 9.0988 23.718 9.0216 23.6808C8.7154 23.5327 8.47201 23.2487 8.34514 22.8915C8.30512 22.7787 8.27195 22.603 8.25859 22.1864C8.22896 21.262 7.81997 20.3719 7.0939 19.8828C6.36784 19.3937 5.50262 19.4256 4.80158 19.8578C4.48565 20.0527 4.33863 20.107 4.23495 20.1229C3.90626 20.1734 3.57385 20.0695 3.31084 19.834C3.24458 19.7748 3.16045 19.6735 3.02586 19.4398C2.88751 19.1997 2.72736 18.877 2.48926 18.3959C2.25115 17.9147 2.09171 17.5916 1.9826 17.3318C1.87646 17.0789 1.84338 16.9433 1.83248 16.8467C1.78921 16.4632 1.87828 16.0754 2.0801 15.7685C2.14376 15.6718 2.25761 15.5504 2.5602 15.3286C3.23158 14.8365 3.68782 13.9782 3.68786 13.0002C3.68791 12.0219 3.23165 11.1636 2.56021 10.6714C2.25769 10.4496 2.14385 10.3282 2.08019 10.2314C1.87838 9.92459 1.78931 9.53678 1.83258 9.15331C1.84348 9.05672 1.87656 8.92108 1.9827 8.66829C2.09181 8.4084 2.25125 8.08527 2.48935 7.60413C2.72746 7.12299 2.8876 6.80033 3.02596 6.56015C3.16055 6.32651 3.24468 6.22527 3.31093 6.16597C3.57395 5.93051 3.90636 5.82659 4.23504 5.87707C4.33873 5.893 4.48576 5.94734 4.80173 6.14219C5.50273 6.57445 6.36791 6.60627 7.09394 6.11723C7.81998 5.6282 8.22896 4.73814 8.25859 3.81373C8.27195 3.39708 8.30512 3.22136 8.34514 3.10863C8.47201 2.75129 8.7154 2.4674 9.0216 2.31938Z" fill="#828487"/>
</svg>
